<svg width="32" height="32" viewBox="0 0 32 32" fill="none" xmlns="http://www.w3.org/2000/svg">
  <!-- Background Circle -->
  <circle cx="16" cy="16" r="16" fill="#3d405b"/>
  
  <!-- Book Pages -->
  <path d="M8 9c0-1.1.9-2 2-2h12c1.1 0 2 .9 2 2v14c0 1.1-.9 2-2 2H10c-1.1 0-2-.9-2-2V9z" fill="#f4f1de"/>
  
  <!-- Book Spine -->
  <rect x="15" y="7" width="2" height="18" fill="#81b29a"/>
  
  <!-- Mathematical Symbols -->
  <!-- Plus Sign -->
  <rect x="11" y="12" width="4" height="1" fill="#e07a5f"/>
  <rect x="12.5" y="10.5" width="1" height="4" fill="#e07a5f"/>
  
  <!-- Equals Sign -->
  <rect x="18" y="11.5" width="3" height="0.8" fill="#e07a5f"/>
  <rect x="18" y="13.2" width="3" height="0.8" fill="#e07a5f"/>
  
  <!-- Division Symbol -->
  <circle cx="19.5" cy="17" r="0.5" fill="#e07a5f"/>
  <rect x="18" y="18.5" width="3" height="0.8" fill="#e07a5f"/>
  <circle cx="19.5" cy="20.5" r="0.5" fill="#e07a5f"/>
  
  <!-- Pi Symbol -->
  <path d="M10 18h4v1h-1v2h-1v-2h-1v2h-1v-3z" fill="#e07a5f"/>
  <rect x="10" y="18" width="4" height="0.8" fill="#e07a5f"/>
</svg>